<svg width="24" height="24" viewBox="0 0 24 24" fill="none" xmlns="http://www.w3.org/2000/svg">
<path d="M15.3708 11.9458L9.71079 6.2958C9.61783 6.20207 9.50723 6.12768 9.38537 6.07691C9.26351 6.02614 9.1328 6 9.00079 6C8.86878 6 8.73807 6.02614 8.61622 6.07691C8.49436 6.12768 8.38376 6.20207 8.29079 6.2958C8.10454 6.48316 8 6.73661 8 7.0008C8 7.26498 8.10454 7.51844 8.29079 7.7058L13.2408 12.7058L8.29079 17.6558C8.10454 17.8432 8 18.0966 8 18.3608C8 18.625 8.10454 18.8784 8.29079 19.0658C8.38341 19.1603 8.49385 19.2355 8.61573 19.287C8.7376 19.3384 8.86849 19.3652 9.00079 19.3658C9.1331 19.3652 9.26398 19.3384 9.38586 19.287C9.50773 19.2355 9.61818 19.1603 9.71079 19.0658L15.3708 13.4158C15.4723 13.3222 15.5533 13.2085 15.6087 13.082C15.6641 12.9555 15.6927 12.8189 15.6927 12.6808C15.6927 12.5427 15.6641 12.4061 15.6087 12.2796C15.5533 12.1531 15.4723 12.0394 15.3708 11.9458Z" fill="#72767C"/>
</svg>
