<svg width="20" height="20" viewBox="0 0 20 20" fill="none" xmlns="http://www.w3.org/2000/svg">
<path fill-rule="evenodd" clip-rule="evenodd" d="M8.33337 16.6667C8.33337 18.0474 7.21409 19.1667 5.83337 19.1667C4.45266 19.1667 3.33337 18.0474 3.33337 16.6667C3.33337 15.286 4.45266 14.1667 5.83337 14.1667C7.21409 14.1667 8.33337 15.286 8.33337 16.6667ZM6.66671 16.6667C6.66671 17.1269 6.29361 17.5 5.83337 17.5C5.37314 17.5 5.00004 17.1269 5.00004 16.6667C5.00004 16.2064 5.37314 15.8334 5.83337 15.8334C6.29361 15.8334 6.66671 16.2064 6.66671 16.6667Z" fill="#777E91"/>
<path fill-rule="evenodd" clip-rule="evenodd" d="M16.6667 16.6667C16.6667 18.0474 15.5474 19.1667 14.1667 19.1667C12.786 19.1667 11.6667 18.0474 11.6667 16.6667C11.6667 15.286 12.786 14.1667 14.1667 14.1667C15.5474 14.1667 16.6667 15.286 16.6667 16.6667ZM15 16.6667C15 17.1269 14.6269 17.5 14.1667 17.5C13.7065 17.5 13.3334 17.1269 13.3334 16.6667C13.3334 16.2064 13.7065 15.8334 14.1667 15.8334C14.6269 15.8334 15 16.2064 15 16.6667Z" fill="#777E91"/>
<path fill-rule="evenodd" clip-rule="evenodd" d="M1.75466 2.12734C1.96049 1.71569 2.46105 1.54884 2.8727 1.75466L3.70895 2.17279C4.48334 2.55999 5.00227 3.32029 5.08065 4.18252L5.12052 4.62108C5.14003 4.83569 5.31998 5.00002 5.53548 5.00002H16.5296C17.9842 5.00002 18.991 6.45288 18.4803 7.81486L17.0192 11.7112C16.6533 12.6869 15.7205 13.3334 14.6784 13.3334H6.52204C5.22904 13.3334 4.14937 12.3474 4.03231 11.0597L3.42083 4.33341C3.3947 4.046 3.22173 3.79257 2.9636 3.6635L2.12734 3.24538C1.71569 3.03955 1.54884 2.53899 1.75466 2.12734ZM5.76275 6.66669C5.51774 6.66669 5.32561 6.87707 5.34779 7.12108L5.69213 10.9088C5.73115 11.338 6.09104 11.6667 6.52204 11.6667H14.6784C15.0257 11.6667 15.3367 11.4512 15.4586 11.126L16.9197 7.22965C17.0219 6.95726 16.8205 6.66669 16.5296 6.66669H5.76275Z" fill="#777E91"/>
</svg>
