<svg width="24" height="24" viewBox="0 0 24 24" fill="none" xmlns="http://www.w3.org/2000/svg">
<path d="M19.838 9.5811C19.7551 9.4166 19.6283 9.27826 19.4716 9.18143C19.3149 9.08459 19.1344 9.03304 18.9502 9.03248H13.9627V3.04747C13.9734 2.8287 13.9118 2.61249 13.7874 2.43221C13.663 2.25193 13.4827 2.1176 13.2744 2.04997C13.0742 1.98407 12.8582 1.98333 12.6574 2.04785C12.4567 2.11237 12.2816 2.23883 12.1572 2.40907L4.17721 13.3816C4.07723 13.5261 4.01719 13.6944 4.00318 13.8696C3.98916 14.0448 4.02167 14.2205 4.09741 14.3791C4.16716 14.5604 4.28832 14.7174 4.44603 14.8308C4.60373 14.9442 4.79112 15.0091 4.98519 15.0175H9.97269V21.0025C9.97285 21.2128 10.0395 21.4178 10.1631 21.588C10.2867 21.7582 10.461 21.8849 10.661 21.9501C10.7612 21.9812 10.8653 21.998 10.9702 22C11.1276 22.0004 11.2828 21.9636 11.4233 21.8925C11.5637 21.8214 11.6853 21.7181 11.7782 21.591L19.7582 10.6185C19.8657 10.4697 19.93 10.2941 19.9441 10.111C19.9581 9.92799 19.9214 9.74462 19.838 9.5811ZM11.9677 17.9302V14.02C11.9677 13.7554 11.8626 13.5017 11.6755 13.3146C11.4885 13.1276 11.2347 13.0225 10.9702 13.0225H6.98019L11.9677 6.11977V10.03C11.9677 10.2945 12.0728 10.5483 12.2599 10.7353C12.4469 10.9224 12.7006 11.0275 12.9652 11.0275H16.9552L11.9677 17.9302Z" fill="#72767C"/>
</svg>
