<svg width="24" height="24" viewBox="0 0 24 24" fill="none" xmlns="http://www.w3.org/2000/svg">
<path d="M21.7071 3.70711C22.0976 3.31658 22.0976 2.68342 21.7071 2.29289C21.3166 1.90237 20.6834 1.90237 20.2929 2.29289L7.79289 14.7929C7.40237 15.1834 7.40237 15.8166 7.79289 16.2071C8.18342 16.5976 8.81658 16.5976 9.20711 16.2071L21.7071 3.70711Z" fill="#777E91"/>
<path d="M5.20711 20.2071C5.59763 19.8166 5.59763 19.1834 5.20711 18.7929C4.81658 18.4024 4.18342 18.4024 3.79289 18.7929L2.29289 20.2929C1.90237 20.6834 1.90237 21.3166 2.29289 21.7071C2.68342 22.0976 3.31658 22.0976 3.70711 21.7071L5.20711 20.2071Z" fill="#777E91"/>
<path fill-rule="evenodd" clip-rule="evenodd" d="M6.24661 19.4182C6.52385 19.6954 6.95347 19.8016 7.25812 19.5548C7.7107 19.1881 8.00001 18.6279 8.00001 18C8.00001 16.8954 7.10458 16 6.00001 16C5.37216 16 4.81187 16.2893 4.4452 16.7419C4.19839 17.0465 4.3046 17.4762 4.58184 17.7534L6.24661 19.4182ZM7.22312 21.8095C6.46551 22.0526 5.68394 21.6839 5.12133 21.1213L2.87869 18.8787C2.31608 18.3161 1.94742 17.5345 2.19047 16.7769C2.70726 15.166 4.21747 14 6.00001 14C8.20915 14 10 15.7909 10 18C10 19.7825 8.83402 21.2928 7.22312 21.8095Z" fill="#777E91"/>
<path d="M2.29289 3.70711C1.90237 3.31658 1.90237 2.68342 2.29289 2.29289C2.68342 1.90237 3.31658 1.90237 3.70711 2.29289L16.2071 14.7929C16.5976 15.1834 16.5976 15.8166 16.2071 16.2071C15.8166 16.5976 15.1834 16.5976 14.7929 16.2071L2.29289 3.70711Z" fill="#777E91"/>
<path d="M18.7929 20.2071C18.4024 19.8166 18.4024 19.1834 18.7929 18.7929C19.1834 18.4024 19.8166 18.4024 20.2071 18.7929L21.7071 20.2929C22.0976 20.6834 22.0976 21.3166 21.7071 21.7071C21.3166 22.0976 20.6834 22.0976 20.2929 21.7071L18.7929 20.2071Z" fill="#777E91"/>
<path fill-rule="evenodd" clip-rule="evenodd" d="M17.7534 19.4182C17.4761 19.6954 17.0465 19.8016 16.7419 19.5548C16.2893 19.1881 16 18.6279 16 18C16 16.8954 16.8954 16 18 16C18.6278 16 19.1881 16.2893 19.5548 16.7419C19.8016 17.0465 19.6954 17.4762 19.4182 17.7534L17.7534 19.4182ZM16.7769 21.8095C17.5345 22.0526 18.3161 21.6839 18.8787 21.1213L21.1213 18.8787C21.6839 18.3161 22.0526 17.5345 21.8095 16.7769C21.2927 15.166 19.7825 14 18 14C15.7908 14 14 15.7909 14 18C14 19.7825 15.166 21.2928 16.7769 21.8095Z" fill="#777E91"/>
</svg>
