<svg width="24" height="24" viewBox="0 0 24 24" fill="none" xmlns="http://www.w3.org/2000/svg">
<path d="M19.7753 18.6349L16.8091 15.6937C17.9605 14.2585 18.5181 12.437 18.3672 10.6035C18.2164 8.77005 17.3685 7.06405 15.998 5.8363C14.6275 4.60855 12.8385 3.95237 10.9989 4.00269C9.15928 4.05301 7.40887 4.80601 6.10758 6.10684C4.80629 7.40767 4.05303 9.15747 4.0027 10.9964C3.95236 12.8354 4.60876 14.6238 5.83694 15.9938C7.06512 17.3638 8.77172 18.2114 10.6058 18.3622C12.4399 18.513 14.2621 17.9556 15.6978 16.8046L18.64 19.7458C18.7143 19.8207 18.8028 19.8802 18.9002 19.9208C18.9976 19.9613 19.1021 19.9822 19.2077 19.9822C19.3132 19.9822 19.4177 19.9613 19.5152 19.9208C19.6126 19.8802 19.701 19.8207 19.7753 19.7458C19.9194 19.5968 20 19.3976 20 19.1903C20 18.9831 19.9194 18.7839 19.7753 18.6349ZM11.2124 16.8046C10.1055 16.8046 9.02346 16.4765 8.10309 15.8617C7.18272 15.247 6.46538 14.3732 6.04178 13.3509C5.61818 12.3286 5.50735 11.2037 5.7233 10.1184C5.93925 9.03316 6.47228 8.03628 7.25499 7.25384C8.0377 6.47141 9.03493 5.93857 10.1206 5.72269C11.2062 5.50682 12.3315 5.61761 13.3542 6.04106C14.3768 6.46451 15.2509 7.1816 15.8659 8.10164C16.4809 9.02169 16.8091 10.1034 16.8091 11.2099C16.8091 12.6937 16.2195 14.1167 15.1699 15.1659C14.1203 16.2152 12.6968 16.8046 11.2124 16.8046Z" fill="#7C7C8D"/>
</svg>
