<svg width="20" height="20" viewBox="0 0 20 20" fill="none" xmlns="http://www.w3.org/2000/svg">
<path fill-rule="evenodd" clip-rule="evenodd" d="M11.1999 20C10.7985 20 8.62449 19.7815 8.50353 19.7571C5.96584 19.2421 4 15.3689 4 11C4 6.63455 5.96318 2.76165 8.49813 2.24288C8.62002 2.21802 10.7984 2 11.1996 2C14.1819 2 16.5995 6.02911 16.5995 10.9997C16.5995 15.9704 14.1819 19.9995 11.1996 19.9995L11.1999 20ZM12.1 16.4001C13.5911 16.4001 14.7999 13.9825 14.7999 11.0002C14.7999 8.01789 13.5911 5.60027 12.1 5.60027C10.6088 5.60027 9.39999 8.01789 9.39999 11.0002C9.39999 13.9825 10.6088 16.4001 12.1 16.4001ZM11.3862 6.87427C11.6344 6.6332 11.9056 6.50031 12.1896 6.50031C12.4744 6.50031 12.7463 6.6338 12.9949 6.87622C13.0568 6.93649 12.9679 7.4102 12.7284 8.29733C12.5474 8.9027 12.3678 9.20629 12.1896 9.20795C12.0113 9.20961 11.8328 8.90933 11.654 8.30713C11.4138 7.41186 11.3246 6.93424 11.3862 6.8743L11.3862 6.87427ZM13.5791 7.89443C13.7511 8.38725 13.8875 8.96642 13.9752 9.61611C14.0632 10.2675 14.0944 10.9304 14.0754 11.574C14.0707 11.7341 13.8559 11.6773 13.431 11.4035C13.1355 11.1767 12.96 10.8599 12.9043 10.4528C12.8487 10.0457 12.9122 9.54457 13.0952 8.94942C13.3749 8.12362 13.5363 7.77197 13.5791 7.89443L13.5791 7.89443ZM13.8531 13.2241C13.7114 13.7698 13.5245 14.2606 13.2946 14.6621C13.0643 15.0647 12.8116 15.3409 12.5513 15.4962C12.4865 15.5349 12.4426 15.0261 12.4196 13.97C12.4179 13.2243 12.489 12.7248 12.6328 12.4717C12.7766 12.2184 12.9945 12.2089 13.2863 12.4434C13.6995 12.8283 13.8884 13.0886 13.8531 13.2241L13.8531 13.2241ZM11.8298 15.498C11.5701 15.3425 11.3183 15.0666 11.0884 14.6651C10.858 14.2625 10.6707 13.7703 10.5288 13.2228C10.4935 13.0866 10.6811 12.8289 11.0918 12.4498C11.3863 12.2158 11.6058 12.224 11.7502 12.4747C11.8949 12.7253 11.9659 13.2205 11.9634 13.9604C11.9389 15.0241 11.8943 15.5367 11.8298 15.498L11.8298 15.498ZM10.3052 11.5734C10.2864 10.9314 10.3177 10.2703 10.4056 9.62063C10.4936 8.96928 10.6304 8.38875 10.8031 7.89504C10.846 7.77225 11.0058 8.1218 11.2828 8.94371C11.4663 9.54472 11.5309 10.0493 11.4764 10.4573C11.422 10.8655 11.2481 11.181 10.9547 11.4039C10.5263 11.6764 10.3098 11.7329 10.3053 11.5734L10.3052 11.5734Z" fill="#808191"/>
</svg>
