<svg width="20" height="20" viewBox="0 0 20 20" fill="none" xmlns="http://www.w3.org/2000/svg">
<path d="M10.3835 2.11906C10.3187 2.04352 10.2243 2 10.1248 2C10.0254 2 9.93093 2.04352 9.86621 2.11906C9.62468 2.40149 4 9.11517 4 12.3272C4.018 13.9349 4.67287 15.4699 5.82117 16.5951C6.96948 17.7204 8.51724 18.3442 10.1249 18.3298C11.7326 18.3442 13.2804 17.7204 14.4287 16.5951C15.577 15.4699 16.2319 13.935 16.2499 12.3272C16.2499 9.11517 10.6252 2.40139 10.3837 2.11906H10.3835ZM12.3196 16.4447C12.2727 16.4701 12.2199 16.483 12.1665 16.482C12.0097 16.4811 11.8738 16.3732 11.8375 16.2207C11.8011 16.0681 11.8738 15.9104 12.0134 15.839C12.669 15.515 13.2216 15.0149 13.6092 14.3947C13.9969 13.7744 14.2042 13.0586 14.2081 12.3273C14.2081 12.1394 14.3604 11.9871 14.5484 11.9871C14.7363 11.9871 14.8886 12.1394 14.8886 12.3273C14.8852 13.1845 14.643 14.0237 14.1892 14.7511C13.7354 15.4783 13.0881 16.0647 12.3196 16.4446L12.3196 16.4447Z" fill="#444444"/>
</svg>
